<svg width="512" height="512" viewBox="0 0 512 512" fill="none" xmlns="http://www.w3.org/2000/svg">
<rect width="512" height="512" fill="#250033"/>
<path d="M256 44.5195C270.45 44.5195 284.561 45.9695 298.196 48.7305L126.442 220.485C108.711 238.217 108.711 266.966 126.442 284.697C144.174 302.428 172.922 302.428 190.653 284.697L386.093 89.2568C435.632 127.962 467.48 188.261 467.48 256C467.48 372.798 372.798 467.481 256 467.481C241.55 467.481 227.438 466.031 213.802 463.27L385.558 291.515C403.289 273.783 403.289 245.034 385.558 227.303C367.826 209.572 339.078 209.572 321.347 227.303L125.906 422.743C76.3675 384.038 44.5186 323.739 44.5186 256C44.5186 139.202 139.202 44.5196 256 44.5195Z" fill="#29E9D9"/>
</svg>
