<svg width="512" height="512" viewBox="0 0 512 512" fill="none" xmlns="http://www.w3.org/2000/svg">
<rect width="512" height="512" rx="256" fill="#250033"/>
<path d="M256 105.956C266.251 105.956 276.263 106.985 285.936 108.944L164.079 230.802C151.499 243.383 151.499 263.779 164.079 276.36C176.659 288.94 197.056 288.94 209.637 276.36L348.3 137.697C383.448 165.158 406.045 207.939 406.045 256C406.045 338.867 338.867 406.044 256 406.044C245.748 406.044 235.736 405.014 226.061 403.055L347.921 281.197C360.501 268.616 360.501 248.219 347.921 235.639C335.341 223.059 314.944 223.059 302.363 235.639L163.699 374.302C128.552 346.841 105.955 304.059 105.955 256C105.955 173.132 173.133 105.956 256 105.956Z" fill="#29E9D9"/>
</svg>
